# xmcd
#
# Track frame offsets:
#	150
#	6367
#	26469
#	51496
#	76100
#	92103
#	107544
#	127227
#	147325
#	170027
#	183799
#	203101
#	208021
#	230147
#	248899
#	268887
#	286303
#
# Disc length: 4070 seconds
#
# Revision: 6
# Processed by: cddbd v1.5.1PL0 Copyright (c) Steve Scherf et al.
# Submitted via: dBpowerAMP V4.0
#
DISCID=fc0fe411
DTITLE=De La Soul - Art Official Intelligence: Mosaic Thump
DYEAR=2000
DGENRE=Hip-Hop
TTITLE0=Spitkicker.com/Say R.- ft. Hope Wilson, Maseo and Chauncey Mason
TTITLE1=U Can Do (Life)
TTITLE2=My Writes- ft. J-Rd, Tash and Xzibit
TTITLE3=Oooh
TTITLE4=Thru Ya City- ft. D.V. Alias Khrist
TTITLE5=I.C. Y'All- ft. Busta Rhymes
TTITLE6=View
TTITLE7=Set The Mood- ft. Indeed
TTITLE8=All Good- ft. Chaka Khan
TTITLE9=Declaration
TTITLE10=Squat!- ft. Ad Rock and Mike D
TTITLE11=Words From The Chief Rocker
TTITLE12=With Me
TTITLE13=Copa (Cabanga)
TTITLE14=Foolin'
TTITLE15=The Art Of Getting Jumped
TTITLE16=U Don't Wanna B.D.S.- ft. Freddie Foxxx
EXTD=de
EXTT0=
EXTT1=
EXTT2=
EXTT3=
EXTT4=
EXTT5=
EXTT6=
EXTT7=
EXTT8=
EXTT9=
EXTT10=
EXTT11=
EXTT12=
EXTT13=
EXTT14=
EXTT15=
EXTT16=
PLAYORDER=
